<svg width="180" height="180" viewBox="0 0 180 180" fill="none" xmlns="http://www.w3.org/2000/svg">
<rect width="180" height="180" fill="white"/>
<path d="M39.9754 52H127.971C132.698 52 136.394 56.0767 135.933 60.7811L127.986 141.781C127.585 145.877 124.14 149 120.025 149H32.029C27.3021 149 23.6057 144.923 24.0673 140.219L32.0136 59.2189C32.4154 55.1228 35.8596 52 39.9754 52Z" stroke="black" stroke-width="4"/>
<path d="M121.348 72.8418L120.717 75.5508C119.95 75.6003 118.997 75.724 117.859 75.9219C116.721 76.1198 115.855 76.3053 115.262 76.4785C114.247 76.8001 113.493 77.3073 112.998 78C112.528 78.6927 112.194 79.4473 111.996 80.2637L103.721 117.113C103.646 117.484 103.572 117.855 103.498 118.227C103.424 118.598 103.387 118.907 103.387 119.154C103.387 120.268 103.844 121.084 104.76 121.604C105.675 122.123 107.469 122.519 110.141 122.791L109.51 125.5H81.0469L81.6777 122.791C82.6673 122.667 83.6816 122.531 84.7207 122.383C85.7598 122.234 86.5514 122.061 87.0957 121.863C88.11 121.492 88.8893 120.997 89.4336 120.379C89.9779 119.736 90.3613 118.907 90.584 117.893L99.4902 78.3711H99.1191L70.5078 124.646H65.832C65.7826 123.682 65.6094 122.135 65.3125 120.008C65.0156 117.855 64.7435 115.839 64.4961 113.959L59.4492 77.7773H59.0781L51.6562 110.025C51.3594 111.262 51.1243 112.475 50.9512 113.662C50.778 114.825 50.6914 115.864 50.6914 116.779C50.6914 117.769 50.7904 118.548 50.9883 119.117C51.2109 119.661 51.5078 120.119 51.8789 120.49C52.3984 121.01 53.3633 121.505 54.7734 121.975C56.2083 122.42 57.2721 122.692 57.9648 122.791L57.334 125.5H34.6973L35.3281 122.791C35.9714 122.717 37.0228 122.556 38.4824 122.309C39.9421 122.036 41.1914 121.579 42.2305 120.936C43.3438 120.243 44.2591 119.105 44.9766 117.521C45.7188 115.913 46.4486 113.538 47.166 110.396L53.1777 84.3828C53.3757 83.4922 53.4993 82.8118 53.5488 82.3418C53.623 81.8717 53.6602 81.4141 53.6602 80.9688C53.6602 80.2018 53.5488 79.5339 53.3262 78.9648C53.1283 78.3958 52.819 77.901 52.3984 77.4805C51.6315 76.7383 50.7285 76.2559 49.6895 76.0332C48.6504 75.7858 47.6361 75.625 46.6465 75.5508L47.2773 72.8418H71.3613L76.4082 107.613L93.6641 79.373C94.431 78.0866 95.1237 76.763 95.7422 75.4023C96.3607 74.0417 96.7194 73.1882 96.8184 72.8418H121.348Z" fill="black"/>
<path d="M154.313 34.0425L138.511 51.0425C137.943 51.6531 137.147 52 136.314 52H39.8844C37.2642 52 35.9032 48.8767 37.6871 46.9575L53.489 29.9575C54.0566 29.3469 54.8527 29 55.6864 29H152.116C154.736 29 156.097 32.1233 154.313 34.0425Z" stroke="black" stroke-width="4"/>
<path d="M135.873 50.168C135.955 49.4171 136.317 48.7247 136.887 48.229L153.182 34.0593C155.246 32.2642 158.439 33.9429 158.131 36.6612L148.114 124.994C148.04 125.646 147.754 126.257 147.299 126.731L131.103 143.631C129.121 145.699 125.645 144.078 125.955 141.231L135.873 50.168Z" fill="black"/>
</svg>
